<mxfile host="app.diagrams.net" modified="2020-11-07T13:23:47.694Z" agent="5.0 (Windows NT 10.0; Win64; x64) AppleWebKit/537.36 (KHTML, like Gecko) Chrome/86.0.4240.183 Safari/537.36" etag="O65p4lbzMCLpF3J6P9aM" version="13.9.2" type="github">
  <diagram id="TevOy8Q3-ooyDSlA7spH" name="Page-1">
    <mxGraphModel dx="2062" dy="1097" grid="1" gridSize="10" guides="1" tooltips="1" connect="1" arrows="1" fold="1" page="1" pageScale="1" pageWidth="827" pageHeight="1169" math="0" shadow="0">
      <root>
        <mxCell id="0" />
        <mxCell id="1" parent="0" />
        <mxCell id="hPyDko6HWCZNWWeoODmt-1" value="" style="verticalAlign=top;align=left;spacingTop=8;spacingLeft=2;spacingRight=12;shape=cube;size=10;direction=south;fontStyle=4;html=1;" vertex="1" parent="1">
          <mxGeometry x="210" y="450" width="320" height="460" as="geometry" />
        </mxCell>
        <mxCell id="hPyDko6HWCZNWWeoODmt-2" value="&lt;font style=&quot;font-size: 15px&quot;&gt;&amp;lt;&amp;lt; Client Workstation &amp;gt;&amp;gt;&lt;/font&gt;" style="text;html=1;strokeColor=none;fillColor=none;align=center;verticalAlign=middle;whiteSpace=wrap;rounded=0;" vertex="1" parent="1">
          <mxGeometry x="275" y="480" width="190" height="20" as="geometry" />
        </mxCell>
        <mxCell id="hPyDko6HWCZNWWeoODmt-3" value="&lt;font style=&quot;font-size: 14px&quot;&gt;PC&lt;/font&gt;" style="text;html=1;strokeColor=none;fillColor=none;align=center;verticalAlign=middle;whiteSpace=wrap;rounded=0;" vertex="1" parent="1">
          <mxGeometry x="350" y="500" width="40" height="20" as="geometry" />
        </mxCell>
        <mxCell id="hPyDko6HWCZNWWeoODmt-4" value="«HCI Layer»&lt;br&gt;&lt;b&gt;Order System&lt;/b&gt;" style="html=1;dropTarget=0;" vertex="1" parent="1">
          <mxGeometry x="280" y="560" width="180" height="90" as="geometry" />
        </mxCell>
        <mxCell id="hPyDko6HWCZNWWeoODmt-5" value="" style="shape=module;jettyWidth=8;jettyHeight=4;" vertex="1" parent="hPyDko6HWCZNWWeoODmt-4">
          <mxGeometry x="1" width="20" height="20" relative="1" as="geometry">
            <mxPoint x="-27" y="7" as="offset" />
          </mxGeometry>
        </mxCell>
        <mxCell id="hPyDko6HWCZNWWeoODmt-6" value="«PD Layer»&lt;br&gt;&lt;b&gt;Order System&lt;/b&gt;" style="html=1;dropTarget=0;" vertex="1" parent="1">
          <mxGeometry x="280" y="670" width="180" height="90" as="geometry" />
        </mxCell>
        <mxCell id="hPyDko6HWCZNWWeoODmt-7" value="" style="shape=module;jettyWidth=8;jettyHeight=4;" vertex="1" parent="hPyDko6HWCZNWWeoODmt-6">
          <mxGeometry x="1" width="20" height="20" relative="1" as="geometry">
            <mxPoint x="-27" y="7" as="offset" />
          </mxGeometry>
        </mxCell>
        <mxCell id="hPyDko6HWCZNWWeoODmt-8" value="«DM Layer»&lt;br&gt;&lt;b&gt;Order System&lt;/b&gt;" style="html=1;dropTarget=0;" vertex="1" parent="1">
          <mxGeometry x="280" y="780" width="180" height="90" as="geometry" />
        </mxCell>
        <mxCell id="hPyDko6HWCZNWWeoODmt-9" value="" style="shape=module;jettyWidth=8;jettyHeight=4;" vertex="1" parent="hPyDko6HWCZNWWeoODmt-8">
          <mxGeometry x="1" width="20" height="20" relative="1" as="geometry">
            <mxPoint x="-27" y="7" as="offset" />
          </mxGeometry>
        </mxCell>
      </root>
    </mxGraphModel>
  </diagram>
</mxfile>
